 <svg height="1000" version="1.1" width="860" xmlns="http://www.w3.org/2000/svg" xmlns:xlink="http://www.w3.org/1999/xlink" style="overflow: hidden; position: relative;" id="paper-canvas"><desc style="-webkit-tap-highlight-color: rgba(0, 0, 0, 0);">Created with Raphaël 2.3.0</desc><defs style="-webkit-tap-highlight-color: rgba(0, 0, 0, 0);"><style type="text/css">@import url('https://fonts.googleapis.com/css2?family=Abril+Fatface');@import url('https://fonts.googleapis.com/css2?family=Ballet:opsz@16..72');@import url('https://fonts.googleapis.com/css2?family=Cinzel');@import url('https://fonts.googleapis.com/css2?family=Comfortaa:wght@300');@import url('https://fonts.googleapis.com/css2?family=Cormorant+Garamond:wght@300');@import url('https://fonts.googleapis.com/css2?family=Dancing+Script');@import url('https://fonts.googleapis.com/css2?family=Felipa');@import url('https://fonts.googleapis.com/css2?family=Geostar+Fill');@import url('https://fonts.googleapis.com/css2?family=Great+Vibes');@import url('https://fonts.googleapis.com/css2?family=Lobster');@import url('https://fonts.googleapis.com/css2?family=Miltonian');@import url('https://fonts.googleapis.com/css2?family=MonteCarlo');@import url('https://fonts.googleapis.com/css2?family=Orbitron');@import url('https://fonts.googleapis.com/css2?family=Parisienne');@import url('https://fonts.googleapis.com/css2?family=Pinyon+Script');@import url('https://fonts.googleapis.com/css2?family=Playfair+Display');@import url('https://fonts.googleapis.com/css2?family=Roboto:wght@100');@import url('https://fonts.googleapis.com/css2?family=Romanesco');@import url('https://fonts.googleapis.com/css2?family=Send+Flowers');@import url('https://fonts.googleapis.com/css2?family=Teko:wght@300');@import url('https://fonts.googleapis.com/css2?family=Tienne');</style></defs><image x="800" y="30" width="50" height="50" preserveAspectRatio="none" xlink:href="logos/trash.png" class="trash" style="-webkit-tap-highlight-color: rgba(0, 0, 0, 0);"></image><path fill="none" stroke="#000000" d="M100,100L140,140L140,180L100,220L60,180L60,140L100,100Z" class="hexagon0" style="-webkit-tap-highlight-color: rgba(0, 0, 0, 0);" transform="matrix(0.9375,0,0,0.625,-8.75,-17)" stroke-width="1.0666666666666667"></path><rect x="20" y="20" width="576" height="792" rx="0" ry="0" fill="none" stroke="#000000" stroke-width="2px" class="a5-page" style="-webkit-tap-highlight-color: rgba(0, 0, 0, 0);"></rect><path fill="none" stroke="#000000" d="M100,100L140,140L140,180L100,220L60,180L60,140L100,100Z" class="hexagon1" style="-webkit-tap-highlight-color: rgba(0, 0, 0, 0);" transform="matrix(0.9375,0,0,0.625,29.25,33)" stroke-width="1.0666666666666667"></path><path fill="none" stroke="#000000" d="M100,100L140,140L140,180L100,220L60,180L60,140L100,100Z" class="hexagon2" style="-webkit-tap-highlight-color: rgba(0, 0, 0, 0);" transform="matrix(0.9375,0,0,0.625,-45.75,-67)" stroke-width="1.0666666666666667"></path><path fill="none" stroke="#000000" d="M100,100L140,140L140,180L100,220L60,180L60,140L100,100Z" class="hexagon5" style="-webkit-tap-highlight-color: rgba(0, 0, 0, 0);" transform="matrix(0.9375,0,0,0.625,29.25,133)" stroke-width="1.0666666666666667"></path><path fill="none" stroke="#000000" d="M100,100L140,140L140,180L100,220L60,180L60,140L100,100Z" class="hexagon6" style="-webkit-tap-highlight-color: rgba(0, 0, 0, 0);" transform="matrix(0.9375,0,0,0.625,-8.75,182)" stroke-width="1.0666666666666667"></path><path fill="none" stroke="#000000" d="M100,100L140,140L140,180L100,220L60,180L60,140L100,100Z" class="hexagon3" style="-webkit-tap-highlight-color: rgba(0, 0, 0, 0);" transform="matrix(0.9375,0,0,0.625,-7.75,84)" stroke-width="1.0666666666666667"></path><path fill="none" stroke="#000000" d="M100,100L140,140L140,180L100,220L60,180L60,140L100,100Z" class="hexagon4" style="-webkit-tap-highlight-color: rgba(0, 0, 0, 0);" transform="matrix(0.9375,0,0,0.625,-45.75,133)" stroke-width="1.0666666666666667"></path><path fill="none" stroke="#000000" d="M100,100L140,140L140,180L100,220L60,180L60,140L100,100Z" class="hexagon9" style="-webkit-tap-highlight-color: rgba(0, 0, 0, 0);" transform="matrix(0.9375,0,0,0.625,180.25,133)" stroke-width="1.0666666666666667"></path><path fill="none" stroke="#000000" d="M100,100L140,140L140,180L100,220L60,180L60,140L100,100Z" class="hexagon10" style="-webkit-tap-highlight-color: rgba(0, 0, 0, 0);" transform="matrix(0.9375,0,0,0.625,441.25,659)" stroke-width="1.0666666666666667"></path><path fill="none" stroke="#000000" d="M100,100L140,140L140,180L100,220L60,180L60,140L100,100Z" class="hexagon8" style="-webkit-tap-highlight-color: rgba(0, 0, 0, 0);" transform="matrix(0.9375,0,0,0.625,143.25,83)" stroke-width="1.0666666666666667"></path><path fill="none" stroke="#000000" d="M100,100L140,140L140,180L100,220L60,180L60,140L100,100Z" class="hexagon7" style="-webkit-tap-highlight-color: rgba(0, 0, 0, 0);" transform="matrix(0.9375,0,0,0.625,105.25,133)" stroke-width="1.0666666666666667"></path><path fill="none" stroke="#000000" d="M100,100L140,140L140,180L100,220L60,180L60,140L100,100Z" class="hexagon12" style="-webkit-tap-highlight-color: rgba(0, 0, 0, 0);" transform="matrix(0.9375,0,0,0.625,441.25,559)" stroke-width="1.0666666666666667"></path><path fill="none" stroke="#000000" d="M100,100L140,140L140,180L100,220L60,180L60,140L100,100Z" class="hexagon11" style="-webkit-tap-highlight-color: rgba(0, 0, 0, 0);" transform="matrix(0.9375,0,0,0.625,403.25,609)" stroke-width="1.0666666666666667"></path><path fill="none" stroke="#000000" d="M100,100L140,140L140,180L100,220L60,180L60,140L100,100Z" class="hexagon13" style="-webkit-tap-highlight-color: rgba(0, 0, 0, 0);" transform="matrix(0.9375,0,0,0.625,366.25,559)" stroke-width="1.0666666666666667"></path><path fill="none" stroke="#000000" d="M100,100L140,140L140,180L100,220L60,180L60,140L100,100Z" class="hexagon15" style="-webkit-tap-highlight-color: rgba(0, 0, 0, 0);" transform="matrix(0.9375,0,0,0.625,478.25,710)" stroke-width="1.0666666666666667"></path><path fill="none" stroke="#000000" d="M100,100L140,140L140,180L100,220L60,180L60,140L100,100Z" class="hexagon14" style="-webkit-tap-highlight-color: rgba(0, 0, 0, 0);" transform="matrix(0.9375,0,0,0.625,403.25,709)" stroke-width="1.0666666666666667"></path><path fill="none" stroke="#000000" d="M100,100L140,140L140,180L100,220L60,180L60,140L100,100Z" class="hexagon16" style="-webkit-tap-highlight-color: rgba(0, 0, 0, 0);" transform="matrix(0.9375,0,0,0.625,329.25,609)" stroke-width="1.0666666666666667"></path><path fill="none" stroke="#000000" d="M100,100L140,140L140,180L100,220L60,180L60,140L100,100Z" class="hexagon17" style="-webkit-tap-highlight-color: rgba(0, 0, 0, 0);" transform="matrix(0.9375,0,0,0.625,403.25,509)" stroke-width="1.0666666666666667"></path><path fill="none" stroke="#000000" d="M100,100L140,140L140,180L100,220L60,180L60,140L100,100Z" class="hexagon18" style="-webkit-tap-highlight-color: rgba(0, 0, 0, 0);" transform="matrix(0.9375,0,0,0.625,478.25,509)" stroke-width="1.0666666666666667"></path><path fill="none" stroke="#000000" d="M100,100L140,140L140,180L100,220L60,180L60,140L100,100Z" class="hexagon19" style="-webkit-tap-highlight-color: rgba(0, 0, 0, 0);" transform="matrix(0.9375,0,0,0.625,440.25,459)" stroke-width="1.0666666666666667"></path><path fill="none" stroke="#000000" d="M100,100L140,140L140,180L100,220L60,180L60,140L100,100Z" class="hexagon21" style="-webkit-tap-highlight-color: rgba(0, 0, 0, 0);" transform="matrix(0.9375,0,0,0.625,515.25,359)" stroke-width="1.0666666666666667"></path><path fill="none" stroke="#000000" d="M100,100L140,140L140,180L100,220L60,180L60,140L100,100Z" class="hexagon20" style="-webkit-tap-highlight-color: rgba(0, 0, 0, 0);" transform="matrix(0.9375,0,0,0.625,477.25,409)" stroke-width="1.0666666666666667"></path><path fill="none" stroke="#000000" d="M100,100L140,140L140,180L100,220L60,180L60,140L100,100Z" class="hexagon22" style="-webkit-tap-highlight-color: rgba(0, 0, 0, 0);" transform="matrix(0.9375,0,0,0.625,439.25,359)" stroke-width="1.0666666666666667"></path><path fill="none" stroke="#000000" d="M100,100L140,140L140,180L100,220L60,180L60,140L100,100Z" class="hexagon24" style="-webkit-tap-highlight-color: rgba(0, 0, 0, 0);" transform="matrix(0.9375,0,0,0.625,366.25,659)" stroke-width="1.0666666666666667"></path><path fill="none" stroke="#000000" d="M100,100L140,140L140,180L100,220L60,180L60,140L100,100Z" class="hexagon23" style="-webkit-tap-highlight-color: rgba(0, 0, 0, 0);" transform="matrix(0.9375,0,0,0.625,477.25,309)" stroke-width="1.0666666666666667"></path><path fill="none" stroke="#000000" d="M100,100L140,140L140,180L100,220L60,180L60,140L100,100Z" class="hexagon25" style="-webkit-tap-highlight-color: rgba(0, 0, 0, 0);" transform="matrix(0.9375,0,0,0.625,291.25,659)" stroke-width="1.0666666666666667"></path><path fill="none" stroke="#000000" d="M100,100L140,140L140,180L100,220L60,180L60,140L100,100Z" class="hexagon26" style="-webkit-tap-highlight-color: rgba(0, 0, 0, 0);" transform="matrix(0.9375,0,0,0.625,253.25,609)" stroke-width="1.0666666666666667"></path><path fill="none" stroke="#000000" d="M100,100L140,140L140,180L100,220L60,180L60,140L100,100Z" class="hexagon27" style="-webkit-tap-highlight-color: rgba(0, 0, 0, 0);" transform="matrix(0.9375,0,0,0.625,215.25,559)" stroke-width="1.0666666666666667"></path><path fill="none" stroke="#000000" d="M100,100L140,140L140,180L100,220L60,180L60,140L100,100Z" class="hexagon28" style="-webkit-tap-highlight-color: rgba(0, 0, 0, 0);" transform="matrix(0.9375,0,0,0.625,177.25,609)" stroke-width="1.0666666666666667"></path><path fill="none" stroke="#000000" d="M100,100L140,140L140,180L100,220L60,180L60,140L100,100Z" class="hexagon29" style="-webkit-tap-highlight-color: rgba(0, 0, 0, 0);" transform="matrix(0.9375,0,0,0.625,102.25,609)" stroke-width="1.0666666666666667"></path><path fill="none" stroke="#000000" d="M100,100L140,140L140,180L100,220L60,180L60,140L100,100Z" class="hexagon30" style="-webkit-tap-highlight-color: rgba(0, 0, 0, 0);" transform="matrix(0.9375,0,0,0.625,139.25,559)" stroke-width="1.0666666666666667"></path><path fill="none" stroke="#000000" d="M100,100L140,140L140,180L100,220L60,180L60,140L100,100Z" class="hexagon31" style="-webkit-tap-highlight-color: rgba(0, 0, 0, 0);" transform="matrix(0.9375,0,0,0.625,65.25,560)" stroke-width="1.0666666666666667"></path><path fill="none" stroke="#000000" d="M100,100L140,140L140,180L100,220L60,180L60,140L100,100Z" class="hexagon32" style="-webkit-tap-highlight-color: rgba(0, 0, 0, 0);" transform="matrix(0.9375,0,0,0.625,28.25,510)" stroke-width="1.0666666666666667"></path><path fill="none" stroke="#000000" d="M100,100L140,140L140,180L100,220L60,180L60,140L100,100Z" class="hexagon33" style="-webkit-tap-highlight-color: rgba(0, 0, 0, 0);" transform="matrix(0.9375,0,0,0.625,-9.75,460)" stroke-width="1.0666666666666667"></path><text x="125" y="75" text-anchor="middle" font-family="Dancing Script" font-size="26px" stroke="none" fill="#000000" style="-webkit-tap-highlight-color: rgba(0, 0, 0, 0); text-anchor: middle; font-family: &quot;Dancing Script&quot;; font-size: 26px;" stroke-width="0.13866667005750868" transform="matrix(6.1119,0,0,7.2115,-467.9127,-165.7547)"><tspan dy="8.317937850952148" style="-webkit-tap-highlight-color: rgba(0, 0, 0, 0);">may</tspan></text><tspan dy="8.317937850952148" style="-webkit-tap-highlight-color: rgba(0, 0, 0, 0);">may</tspan><path fill="none" stroke="#000000" d="M100,100L140,140L140,180L100,220L60,180L60,140L100,100Z" class="hexagon34" style="-webkit-tap-highlight-color: rgba(0, 0, 0, 0);" transform="matrix(0.9375,0,0,0.625,442.25,-41)" stroke-width="1.0666666666666667"></path><path fill="none" stroke="#000000" d="M100,100L140,140L140,180L100,220L60,180L60,140L100,100Z" class="hexagon35" style="-webkit-tap-highlight-color: rgba(0, 0, 0, 0);" transform="matrix(0.9375,0,0,0.625,480.25,-92)" stroke-width="1.0666666666666667"></path><path fill="none" stroke="#000000" d="M100,100L140,140L140,180L100,220L60,180L60,140L100,100Z" class="hexagon36" style="-webkit-tap-highlight-color: rgba(0, 0, 0, 0);" transform="matrix(0.9375,0,0,0.625,518.25,-43)" stroke-width="1.0666666666666667"></path><path fill="none" stroke="#000000" d="M100,100L140,140L140,180L100,220L60,180L60,140L100,100Z" class="hexagon37" style="-webkit-tap-highlight-color: rgba(0, 0, 0, 0);" transform="matrix(0.9375,0,0,0.625,482.25,8)" stroke-width="1.0666666666666667"></path><path fill="none" stroke="#000000" d="M100,100L140,140L140,180L100,220L60,180L60,140L100,100Z" class="hexagon38" style="-webkit-tap-highlight-color: rgba(0, 0, 0, 0);" transform="matrix(0.9375,0,0,0.625,406.25,10)" stroke-width="1.0666666666666667"></path><path fill="none" stroke="#000000" d="M100,100L140,140L140,180L100,220L60,180L60,140L100,100Z" class="hexagon39" style="-webkit-tap-highlight-color: rgba(0, 0, 0, 0);" transform="matrix(0.9375,0,0,0.625,446.25,59)" stroke-width="1.0666666666666667"></path><path fill="none" stroke="#000000" d="M100,100L140,140L140,180L100,220L60,180L60,140L100,100Z" class="hexagon41" style="-webkit-tap-highlight-color: rgba(0, 0, 0, 0);" transform="matrix(0.9375,0,0,0.625,408.25,109)" stroke-width="1.0666666666666667"></path><path fill="none" stroke="#000000" d="M100,100L140,140L140,180L100,220L60,180L60,140L100,100Z" class="hexagon40" style="-webkit-tap-highlight-color: rgba(0, 0, 0, 0);" transform="matrix(0.9375,0,0,0.625,446.25,159)" stroke-width="1.0666666666666667"></path><path fill="none" stroke="#000000" d="M100,100L140,140L140,180L100,220L60,180L60,140L100,100Z" class="hexagon42" style="-webkit-tap-highlight-color: rgba(0, 0, 0, 0);" transform="matrix(0.9375,0,0,0.625,331.25,9)" stroke-width="1.0666666666666667"></path></svg>